<?xml version="1.0" encoding="iso-8859-1"?>
<!-- Generator: Adobe Illustrator 19.0.0, SVG Export Plug-In . SVG Version: 6.00 Build 0)  -->
<svg version="1.1" id="Capa_1" xmlns="http://www.w3.org/2000/svg" xmlns:xlink="http://www.w3.org/1999/xlink" x="0px" y="0px"
	 viewBox="0 0 512 512" style="enable-background:new 0 0 512 512;" xml:space="preserve">
<g>
	<g>
		<path d="M117.333,333.996c-17.643,0-32,14.357-32,32s14.357,32,32,32c17.643,0,32-14.357,32-32S134.976,333.996,117.333,333.996z
			 M117.333,376.663c-5.888,0-10.667-4.779-10.667-10.667s4.779-10.667,10.667-10.667S128,360.108,128,365.996
			S123.221,376.663,117.333,376.663z"/>
	</g>
</g>
<g>
	<g>
		<path d="M437.333,291.33c-41.173,0-74.667,33.493-74.667,74.667s33.493,74.667,74.667,74.667S512,407.17,512,365.996
			S478.507,291.33,437.333,291.33z M437.333,419.33c-29.397,0-53.333-23.936-53.333-53.333s23.936-53.333,53.333-53.333
			s53.333,23.936,53.333,53.333S466.731,419.33,437.333,419.33z"/>
	</g>
</g>
<g>
	<g>
		<path d="M437.333,333.996c-17.643,0-32,14.357-32,32s14.357,32,32,32c17.643,0,32-14.357,32-32S454.976,333.996,437.333,333.996z
			 M437.333,376.663c-5.888,0-10.667-4.779-10.667-10.667s4.779-10.667,10.667-10.667c5.888,0,10.667,4.779,10.667,10.667
			S443.221,376.663,437.333,376.663z"/>
	</g>
</g>
<g>
	<g>
		<path d="M288,333.996H32c-5.888,0-10.667-4.779-10.667-10.667c0-16.875,5.504-32.96,15.488-45.248
			c15.872-19.52,35.776-29.419,59.179-29.419c5.888,0,10.667-4.779,10.667-10.667S101.888,227.33,96,227.33
			c-29.696,0-55.893,12.907-75.733,37.312C7.189,280.706,0,301.548,0,323.33c0,17.643,14.357,32,32,32h256
			c5.888,0,10.667-4.779,10.667-10.667C298.667,338.775,293.888,333.996,288,333.996z"/>
	</g>
</g>
<g>
	<g>
		<path d="M224,184.663H74.667c-17.643,0-32,14.357-32,32c0,17.643,14.357,32,32,32H224c17.643,0,32-14.357,32-32
			C256,199.02,241.643,184.663,224,184.663z M224,227.33H74.667c-5.888,0-10.667-4.779-10.667-10.667s4.779-10.667,10.667-10.667
			H224c5.888,0,10.667,4.779,10.667,10.667S229.888,227.33,224,227.33z"/>
	</g>
</g>
<g>
	<g>
		<path d="M231.531,230.444c-4.16-4.16-10.923-4.16-15.083,0c-14.741,14.72-21.995,84.16-24.427,113.323
			c-0.491,5.867,3.883,11.029,9.749,11.52c0.299,0.043,0.597,0.043,0.896,0.043c5.504,0,10.176-4.203,10.624-9.792
			c3.541-42.475,11.733-92.8,18.24-100.011C235.691,241.367,235.691,234.604,231.531,230.444z"/>
	</g>
</g>
<g>
	<g>
		<path d="M437.333,248.684c-23.083,0-32.277-24-32.875-25.536l-56.363-131.52c-6.485-15.168-22.741-23.296-38.848-19.264
			c-9.003,2.24-16.725,8.213-21.184,16.341c-4.459,8.128-5.355,17.856-2.411,26.667l33.643,100.864l-51.797,124.309
			c-2.261,5.44,0.299,11.691,5.739,13.952c1.344,0.576,2.731,0.832,4.096,0.832c4.181,0,8.128-2.453,9.877-6.528l53.333-128
			c1.003-2.389,1.109-5.035,0.277-7.488l-34.88-104.661c-1.088-3.243-0.768-6.677,0.875-9.664c1.621-2.987,4.352-5.099,7.659-5.931
			c5.803-1.365,11.712,1.493,14.059,6.976l56.128,130.944c0.576,1.6,14.528,39.04,52.693,39.04c22.251,0,43.648,11.2,50.88,18.112
			c-9.579,2.325-30.443,3.776-50.603,3.221c-6.08-0.128-10.795,4.48-10.965,10.368s4.48,10.795,10.368,10.965
			c21.504,0.661,59.307,0.021,70.315-10.688c3.008-2.923,4.651-6.699,4.651-10.645C512,269.378,469.931,248.684,437.333,248.684z"/>
	</g>
</g>
<g>
	<g>
		<path d="M373.333,333.996h-16.427c-3.669,0-6.955-1.771-8.981-4.885c-2.027-3.093-2.325-6.805-0.853-10.155
			c2.88-6.528,6.848-13.099,11.819-19.499c14.955-19.328,14.635-46.272-0.789-65.557l-19.115-23.915
			c-3.691-4.587-10.389-5.355-14.997-1.664c-4.587,3.691-5.333,10.389-1.664,14.997l19.115,23.915
			c9.259,11.563,9.493,27.648,0.597,39.147c-6.037,7.787-10.901,15.851-14.485,23.957c-4.373,9.92-3.435,21.291,2.496,30.4
			c5.952,9.131,15.979,14.592,26.859,14.592h16.427c5.888,0,10.667-4.779,10.667-10.667S379.221,333.996,373.333,333.996z"/>
	</g>
</g>
<g>
	<g>
		<path d="M402.389,81.303c-2.539-2.645-6.251-3.819-9.813-3.093l-33.195,6.635c-8.107,1.621-15.125,6.656-19.264,13.803
			c-4.139,7.147-5.013,15.723-2.368,23.659c3.925,11.776,14.912,19.691,27.328,19.691H384c4.885,0,9.152-3.328,10.347-8.085
			l10.667-42.667C405.909,87.703,404.907,83.948,402.389,81.303z M375.68,120.663h-10.603c-3.221,0-6.08-2.069-7.125-5.227
			c-0.939-2.773-0.021-5.013,0.619-6.101c0.619-1.088,2.112-3.008,4.992-3.584l16.661-3.328L375.68,120.663z"/>
	</g>
</g>
<g>
	<g>
		<path d="M329.131,115.159c-3.029-5.035-9.557-6.699-14.635-3.648l-53.333,32c-5.035,3.029-6.677,9.579-3.648,14.635
			c2.005,3.349,5.525,5.184,9.152,5.184c1.877,0,3.776-0.491,5.483-1.536l53.333-32C330.517,126.764,332.16,120.194,329.131,115.159
			z"/>
	</g>
</g>
<g>
	<g>
		<path d="M187.456,341.1c-1.493-4.267-5.525-7.104-10.048-7.104H57.237c-4.523,0-8.555,2.837-10.048,7.104
			c-3.051,8.597-4.523,16.747-4.523,24.896c0,41.173,33.493,74.667,74.667,74.667c41.173,0,74.667-33.493,74.667-74.667
			C192,357.868,190.528,349.719,187.456,341.1z M117.333,419.33C87.936,419.33,64,395.394,64,365.996
			c0-3.477,0.405-6.997,1.237-10.667h104.192c0.832,3.648,1.237,7.189,1.237,10.667C170.667,395.394,146.731,419.33,117.333,419.33z
			"/>
	</g>
</g>
<g>
</g>
<g>
</g>
<g>
</g>
<g>
</g>
<g>
</g>
<g>
</g>
<g>
</g>
<g>
</g>
<g>
</g>
<g>
</g>
<g>
</g>
<g>
</g>
<g>
</g>
<g>
</g>
<g>
</g>
</svg>
