<?xml version="1.0" encoding="iso-8859-1"?>
<!-- Generator: Adobe Illustrator 19.0.0, SVG Export Plug-In . SVG Version: 6.00 Build 0)  -->
<svg version="1.1" id="Capa_1" xmlns="http://www.w3.org/2000/svg" xmlns:xlink="http://www.w3.org/1999/xlink" x="0px" y="0px"
	 viewBox="0 0 512.001 512.001" style="enable-background:new 0 0 512.001 512.001;" xml:space="preserve">
<g>
	<g>
		<path d="M437.02,74.981C388.667,26.628,324.38,0,256,0S123.333,26.628,74.981,74.981C26.629,123.333,0.001,187.62,0.001,256.001
			s26.628,132.667,74.981,181.02C123.333,485.373,187.62,512.001,256,512.001s132.667-26.628,181.02-74.981
			C485.371,388.668,512,324.382,512,256.001S485.371,123.333,437.02,74.981z M415.814,415.813
			C373.125,458.5,316.369,482.01,256,482.01c-60.369,0-117.125-23.509-159.813-66.197C53.5,373.126,29.991,316.37,29.991,256.001
			c0-60.37,23.509-117.125,66.197-159.813C138.875,53.5,195.63,29.99,256,29.99S373.125,53.5,415.814,96.187
			C458.501,138.874,482.01,195.631,482.01,256S458.501,373.126,415.814,415.813z"/>
	</g>
</g>
<g>
	<g>
		<path d="M256,72.14c-100.193,0-181.741,81.328-182.114,181.435c-0.001,0.058-0.009,0.115-0.009,0.173
			c0,0.035,0.005,0.069,0.005,0.104c0,0.138-0.005,0.274-0.005,0.412c0,45.36,16.779,88.824,47.247,122.383
			c2.284,2.517,5.232,4.062,8.335,4.643c1.247,0.326,2.523,0.504,3.803,0.504c3.837,0,7.676-1.465,10.603-4.392l24.583-24.582
			c5.856-5.856,5.856-15.35,0-21.206c-5.854-5.856-15.349-5.855-21.206,0l-13.371,13.371
			c-16.566-22.269-26.687-48.583-29.315-76.238h19.08c8.281,0,14.995-6.714,14.995-14.995s-6.714-14.995-14.995-14.995h-18.984
			c3.107-30.542,15.288-58.439,33.794-80.951l13.885,13.884c2.928,2.928,6.766,4.392,10.603,4.392c3.837,0,7.675-1.464,10.603-4.393
			c5.856-5.856,5.856-15.35,0-21.206l-13.872-13.872c22.616-18.552,50.654-30.722,81.34-33.738v19.031
			c0,8.281,6.714,14.995,14.995,14.995s14.995-6.714,14.995-14.995V102.87c30.874,3.035,59.07,15.333,81.758,34.076l-13.534,13.534
			c-5.856,5.856-5.856,15.35,0,21.206c2.928,2.928,6.766,4.393,10.603,4.393c3.837,0,7.676-1.465,10.603-4.392l13.466-13.466
			c18.366,22.502,30.434,50.336,33.479,80.79h-19.862c-8.281,0-14.995,6.714-14.995,14.995s6.714,14.995,14.995,14.995h19.915
			c-2.747,28.541-13.448,55.548-30.981,78.214l-14.713-14.713c-5.854-5.856-15.349-5.855-21.206,0
			c-5.856,5.856-5.856,15.35,0,21.206l24.582,24.582c1.125,1.126,2.386,2.029,3.728,2.722c2.624,1.907,5.708,2.867,8.793,2.867
			c3.986,0,7.963-1.579,10.913-4.708c31.974-33.915,49.583-78.275,49.583-124.908C438.123,153.839,356.423,72.14,256,72.14z"/>
	</g>
</g>
<g>
	<g>
		<path d="M283.795,373.786h-55.591c-8.281,0-14.995,6.714-14.995,14.995c0,8.281,6.714,14.995,14.995,14.995h55.591
			c8.281,0,14.995-6.714,14.995-14.995C298.79,380.499,292.076,373.786,283.795,373.786z"/>
	</g>
</g>
<g>
	<g>
		<path d="M299.24,418.81h-86.48c-8.281,0-14.995,6.714-14.995,14.995s6.714,14.995,14.995,14.995h86.48
			c8.281,0,14.995-6.714,14.995-14.995S307.521,418.81,299.24,418.81z"/>
	</g>
</g>
<g>
	<g>
		<path d="M256,218.646c-19.355,0-35.102,15.747-35.102,35.103c0,0.046,0.003,0.09,0.003,0.136l-59.628,25.631
			c-7.608,3.269-11.125,12.088-7.854,19.698c2.441,5.678,7.972,9.077,13.784,9.077c1.976,0,3.985-0.393,5.915-1.223l60.738-26.109
			c6.045,4.928,13.755,7.891,22.144,7.891c19.355,0,35.102-15.747,35.102-35.102C291.102,234.392,275.355,218.646,256,218.646z
			 M256,258.859c-2.818,0-5.111-2.293-5.111-5.111c0-2.819,2.293-5.112,5.111-5.112s5.111,2.293,5.111,5.112
			C261.111,256.565,258.818,258.859,256,258.859z"/>
	</g>
</g>
<g>
</g>
<g>
</g>
<g>
</g>
<g>
</g>
<g>
</g>
<g>
</g>
<g>
</g>
<g>
</g>
<g>
</g>
<g>
</g>
<g>
</g>
<g>
</g>
<g>
</g>
<g>
</g>
<g>
</g>
</svg>
