<?xml version="1.0" encoding="iso-8859-1"?>
<!-- Generator: Adobe Illustrator 19.0.0, SVG Export Plug-In . SVG Version: 6.00 Build 0)  -->
<svg version="1.1" id="Capa_1" xmlns="http://www.w3.org/2000/svg" xmlns:xlink="http://www.w3.org/1999/xlink" x="0px" y="0px"
	 viewBox="0 0 512 512" style="enable-background:new 0 0 512 512;" xml:space="preserve">
<g>
	<g>
		<path d="M96,309.333c-29.419,0-53.333,23.936-53.333,53.333S66.581,416,96,416c29.419,0,53.333-23.936,53.333-53.333
			S125.419,309.333,96,309.333z M96,394.667c-17.643,0-32-14.357-32-32s14.357-32,32-32c17.643,0,32,14.357,32,32
			S113.643,394.667,96,394.667z"/>
	</g>
</g>
<g>
	<g>
		<path d="M416,309.333c-29.419,0-53.333,23.936-53.333,53.333S386.581,416,416,416c29.419,0,53.333-23.936,53.333-53.333
			S445.419,309.333,416,309.333z M416,394.667c-17.643,0-32-14.357-32-32s14.357-32,32-32c17.643,0,32,14.357,32,32
			S433.643,394.667,416,394.667z"/>
	</g>
</g>
<g>
	<g>
		<path d="M330.667,266.667h-21.333c-5.888,0-10.667,4.779-10.667,10.667S303.445,288,309.333,288h21.333
			c5.888,0,10.667-4.779,10.667-10.667S336.555,266.667,330.667,266.667z"/>
	</g>
</g>
<g>
	<g>
		<path d="M487.765,230.933c-15.488-3.883-29.611-11.883-40.853-23.147l-96.192-96.171C340.629,101.547,327.253,96,313.003,96
			H53.333C23.915,96,0,119.936,0,149.333V320c0,29.397,23.915,53.333,53.333,53.333c5.888,0,10.667-4.779,10.667-10.667
			S59.221,352,53.333,352c-17.643,0-32-14.357-32-32V149.333c0-17.643,14.357-32,32-32h259.669c8.405,0,16.661,3.413,22.613,9.387
			l96.192,96.171c13.973,14.016,31.552,23.957,50.773,28.757c4.757,1.195,8.085,5.44,8.085,10.347V320c0,17.643-14.357,32-32,32
			c-5.888,0-10.667,4.779-10.667,10.667s4.779,10.667,10.667,10.667C488.085,373.333,512,349.397,512,320v-58.005
			C512,247.275,502.016,234.517,487.765,230.933z"/>
	</g>
</g>
<g>
	<g>
		<path d="M373.333,352H138.667c-5.888,0-10.667,4.779-10.667,10.667s4.779,10.667,10.667,10.667h234.667
			c5.888,0,10.667-4.779,10.667-10.667S379.221,352,373.333,352z"/>
	</g>
</g>
<g>
	<g>
		<path d="M394.667,224H277.333v-74.667c0-5.888-4.779-10.667-10.667-10.667S256,143.445,256,149.333v85.333
			c0,5.888,4.779,10.667,10.667,10.667h128c5.888,0,10.667-4.779,10.667-10.667S400.555,224,394.667,224z"/>
	</g>
</g>
<g>
	<g>
		<path d="M202.667,160h-128C68.779,160,64,164.779,64,170.667s4.779,10.667,10.667,10.667h128c5.888,0,10.667-4.779,10.667-10.667
			S208.555,160,202.667,160z"/>
	</g>
</g>
<g>
	<g>
		<path d="M202.667,224h-128C68.779,224,64,228.779,64,234.667s4.779,10.667,10.667,10.667h128c5.888,0,10.667-4.779,10.667-10.667
			S208.555,224,202.667,224z"/>
	</g>
</g>
<g>
</g>
<g>
</g>
<g>
</g>
<g>
</g>
<g>
</g>
<g>
</g>
<g>
</g>
<g>
</g>
<g>
</g>
<g>
</g>
<g>
</g>
<g>
</g>
<g>
</g>
<g>
</g>
<g>
</g>
</svg>
